<mxfile host="Electron" agent="Mozilla/5.0 (Windows NT 10.0; Win64; x64) AppleWebKit/537.36 (KHTML, like Gecko) draw.io/25.0.2 Chrome/128.0.6613.186 Electron/32.2.5 Safari/537.36" version="25.0.2">
  <diagram name="Page-1" id="Deka82y9-b4D0-PthfBD">
    <mxGraphModel dx="780" dy="504" grid="0" gridSize="10" guides="1" tooltips="1" connect="1" arrows="1" fold="1" page="1" pageScale="1" pageWidth="850" pageHeight="1100" math="0" shadow="0">
      <root>
        <mxCell id="0" />
        <mxCell id="1" parent="0" />
        <mxCell id="kpWYomfjIyT40YHhruGf-1" value="+ Person" style="swimlane;fontStyle=1;align=center;verticalAlign=top;childLayout=stackLayout;horizontal=1;startSize=26;horizontalStack=0;resizeParent=1;resizeParentMax=0;resizeLast=0;collapsible=1;marginBottom=0;whiteSpace=wrap;html=1;" parent="1" vertex="1">
          <mxGeometry x="485" y="214" width="354" height="110" as="geometry" />
        </mxCell>
        <mxCell id="kpWYomfjIyT40YHhruGf-2" value="&amp;nbsp;firstName: String&lt;div&gt;&amp;nbsp;lastName: String&lt;/div&gt;&lt;div&gt;&amp;nbsp;address: Address&lt;/div&gt;" style="text;strokeColor=none;fillColor=none;align=left;verticalAlign=top;spacingLeft=4;spacingRight=4;overflow=hidden;rotatable=0;points=[[0,0.5],[1,0.5]];portConstraint=eastwest;whiteSpace=wrap;html=1;" parent="kpWYomfjIyT40YHhruGf-1" vertex="1">
          <mxGeometry y="26" width="354" height="50" as="geometry" />
        </mxCell>
        <mxCell id="kpWYomfjIyT40YHhruGf-3" value="" style="line;strokeWidth=1;fillColor=none;align=left;verticalAlign=middle;spacingTop=-1;spacingLeft=3;spacingRight=3;rotatable=0;labelPosition=right;points=[];portConstraint=eastwest;strokeColor=inherit;" parent="kpWYomfjIyT40YHhruGf-1" vertex="1">
          <mxGeometry y="76" width="354" height="8" as="geometry" />
        </mxCell>
        <mxCell id="kpWYomfjIyT40YHhruGf-4" value="+ Person(firstName: String, lastName: String, address: Address)" style="text;strokeColor=none;fillColor=none;align=left;verticalAlign=top;spacingLeft=4;spacingRight=4;overflow=hidden;rotatable=0;points=[[0,0.5],[1,0.5]];portConstraint=eastwest;whiteSpace=wrap;html=1;" parent="kpWYomfjIyT40YHhruGf-1" vertex="1">
          <mxGeometry y="84" width="354" height="26" as="geometry" />
        </mxCell>
        <mxCell id="kpWYomfjIyT40YHhruGf-9" value="+ Address" style="swimlane;fontStyle=1;align=center;verticalAlign=top;childLayout=stackLayout;horizontal=1;startSize=26;horizontalStack=0;resizeParent=1;resizeParentMax=0;resizeLast=0;collapsible=1;marginBottom=0;whiteSpace=wrap;html=1;" parent="1" vertex="1">
          <mxGeometry x="4" y="208.5" width="360" height="121" as="geometry" />
        </mxCell>
        <mxCell id="kpWYomfjIyT40YHhruGf-10" value="&amp;nbsp; country: String&lt;div&gt;&amp;nbsp; state: String&lt;/div&gt;&lt;div&gt;&amp;nbsp; city: String&lt;/div&gt;&lt;div&gt;&amp;nbsp; street: String&lt;/div&gt;" style="text;strokeColor=none;fillColor=none;align=left;verticalAlign=top;spacingLeft=4;spacingRight=4;overflow=hidden;rotatable=0;points=[[0,0.5],[1,0.5]];portConstraint=eastwest;whiteSpace=wrap;html=1;" parent="kpWYomfjIyT40YHhruGf-9" vertex="1">
          <mxGeometry y="26" width="360" height="70" as="geometry" />
        </mxCell>
        <mxCell id="kpWYomfjIyT40YHhruGf-11" value="" style="line;strokeWidth=1;fillColor=none;align=left;verticalAlign=middle;spacingTop=-1;spacingLeft=3;spacingRight=3;rotatable=0;labelPosition=right;points=[];portConstraint=eastwest;strokeColor=inherit;" parent="kpWYomfjIyT40YHhruGf-9" vertex="1">
          <mxGeometry y="96" width="360" height="2" as="geometry" />
        </mxCell>
        <mxCell id="kpWYomfjIyT40YHhruGf-12" value="+ Address(country: String&lt;span style=&quot;background-color: initial;&quot;&gt;, state: String,&amp;nbsp;&lt;/span&gt;&lt;span style=&quot;background-color: initial;&quot;&gt;city: String,&amp;nbsp;&lt;/span&gt;&lt;span style=&quot;background-color: initial;&quot;&gt;street: String&lt;/span&gt;&lt;span style=&quot;background-color: initial;&quot;&gt;)&lt;/span&gt;" style="text;strokeColor=none;fillColor=none;align=left;verticalAlign=top;spacingLeft=4;spacingRight=4;overflow=hidden;rotatable=0;points=[[0,0.5],[1,0.5]];portConstraint=eastwest;whiteSpace=wrap;html=1;" parent="kpWYomfjIyT40YHhruGf-9" vertex="1">
          <mxGeometry y="98" width="360" height="23" as="geometry" />
        </mxCell>
        <mxCell id="kpWYomfjIyT40YHhruGf-13" value="" style="line;strokeWidth=1;fillColor=none;align=left;verticalAlign=middle;spacingTop=-1;spacingLeft=3;spacingRight=3;rotatable=0;labelPosition=right;points=[];portConstraint=eastwest;strokeColor=inherit;" parent="1" vertex="1">
          <mxGeometry x="363" y="267" width="122" height="8" as="geometry" />
        </mxCell>
        <mxCell id="kpWYomfjIyT40YHhruGf-15" value="1..1" style="text;align=center;fontStyle=0;verticalAlign=middle;spacingLeft=3;spacingRight=3;strokeColor=none;rotatable=0;points=[[0,0.5],[1,0.5]];portConstraint=eastwest;html=1;" parent="1" vertex="1">
          <mxGeometry x="449" y="250" width="36" height="17" as="geometry" />
        </mxCell>
        <mxCell id="kpWYomfjIyT40YHhruGf-16" value="1..*" style="text;align=center;fontStyle=0;verticalAlign=middle;spacingLeft=3;spacingRight=3;strokeColor=none;rotatable=0;points=[[0,0.5],[1,0.5]];portConstraint=eastwest;html=1;" parent="1" vertex="1">
          <mxGeometry x="363" y="250" width="36" height="17" as="geometry" />
        </mxCell>
        <mxCell id="kpWYomfjIyT40YHhruGf-17" value="associated to" style="text;align=center;fontStyle=0;verticalAlign=middle;spacingLeft=3;spacingRight=3;strokeColor=none;rotatable=0;points=[[0,0.5],[1,0.5]];portConstraint=eastwest;html=1;" parent="1" vertex="1">
          <mxGeometry x="379" y="285" width="79" height="17" as="geometry" />
        </mxCell>
      </root>
    </mxGraphModel>
  </diagram>
</mxfile>
